<svg xmlns="http://www.w3.org/2000/svg" xmlns:xlink="http://www.w3.org/1999/xlink" viewBox="0,0,256,256" width="50px" height="50px" fill-rule="nonzero"><g fill="#6c6b6b" fill-rule="nonzero" stroke="none" stroke-width="1" stroke-linecap="butt" stroke-linejoin="miter" stroke-miterlimit="10" stroke-dasharray="" stroke-dashoffset="0" font-family="none" font-weight="none" font-size="none" text-anchor="none" style="mix-blend-mode: normal"><g transform="scale(5.12,5.12)"><path d="M25,8c9.374,0 17,7.626 17,17c0,8.458 -6.21,15.491 -14.309,16.785v-12.548h3.857l0.577,-4.253h-4.434c0,0 0,-2.568 0,-3.22c0,-1.276 0.862,-1.93 1.778,-1.93c0.916,0 2.812,-0.026 2.812,-0.026v-4.114c0,0 -1.687,-0.195 -3.41,-0.195c-1.448,0 -3.042,0.408 -4.319,1.721c-1.298,1.336 -1.485,2.925 -1.485,5.331c0,0.696 0,2.433 0,2.433h-3.866v4.253h3.866v12.649c-8.467,-0.962 -15.067,-8.166 -15.067,-16.886c0,-9.374 7.626,-17 17,-17z"></path></g></g></svg>