<svg xmlns="http://www.w3.org/2000/svg" xmlns:xlink="http://www.w3.org/1999/xlink" viewBox="0,0,256,256" width="50px" height="50px" fill-rule="nonzero"><g transform=""><g fill="#6c6b6b" fill-rule="nonzero" stroke="none" stroke-width="1" stroke-linecap="butt" stroke-linejoin="miter" stroke-miterlimit="10" stroke-dasharray="" stroke-dashoffset="0" font-family="none" font-weight="none" font-size="none" text-anchor="none" style="mix-blend-mode: normal"><g transform="scale(5.12,5.12)"><path d="M32.229,10c7.207,0 7.771,0.564 7.771,7.77v14.507c0,7.162 -0.56,7.723 -7.723,7.723h-14.554c-7.163,0 -7.723,-0.561 -7.723,-7.723v-14.554c0,-7.163 0.56,-7.723 7.723,-7.723zM19.771,33.25v-12.204h-3.793v12.204zM17.876,19.3c1.219,0 2.21,-0.991 2.21,-2.212c0,-1.219 -0.991,-2.21 -2.21,-2.21c-1.222,0 -2.212,0.99 -2.212,2.21c0,1.22 0.989,2.212 2.212,2.212zM34,33.25v-6.693c0,-3.286 -0.71,-5.814 -4.55,-5.814c-1.845,0 -3.082,1.012 -3.588,1.971h-0.052v-1.668h-3.639v12.204h3.79v-6.038c0,-1.592 0.303,-3.133 2.277,-3.133c1.945,0 1.971,1.821 1.971,3.236v5.935z"></path></g></g></g></svg>