<svg xmlns="http://www.w3.org/2000/svg" xmlns:xlink="http://www.w3.org/1999/xlink" viewBox="0,0,256,256" width="50px" height="50px" fill-rule="nonzero"><g fill="#6c6b6b" fill-rule="nonzero" stroke="none" stroke-width="1" stroke-linecap="butt" stroke-linejoin="miter" stroke-miterlimit="10" stroke-dasharray="" stroke-dashoffset="0" font-family="none" font-weight="none" font-size="none" text-anchor="none" style="mix-blend-mode: normal"><g transform="scale(5.12,5.12)"><path d="M25,8c9.374,0 17,7.626 17,17c0,9.374 -7.626,17 -17,17c-9.374,0 -17,-7.626 -17,-17c0,-9.374 7.626,-17 17,-17zM34.116,21.562c0.816,-0.589 1.523,-1.323 2.082,-2.159c-1.138,0.517 -2.396,0.657 -2.396,0.657c0,0 1.47,-0.85 1.834,-2.308c-0.805,0.478 -1.698,0.825 -2.649,1.013c-0.761,-0.811 -1.845,-1.318 -3.044,-1.318c-2.304,0 -4.171,1.868 -4.171,4.171c0,0.327 0.108,0.95 0.108,0.95c0,0 -5.034,0.03 -8.598,-4.359c0,0 -0.548,0.734 -0.564,2.098c-0.026,2.313 1.855,3.471 1.855,3.471c0,0 -0.946,0.025 -1.889,-0.522c0.085,3.582 3.346,4.142 3.346,4.142c0,0 -1.053,0.202 -1.884,0.072c0.531,1.657 2.071,2.864 3.896,2.897c-1.427,1.119 -3.226,1.786 -5.18,1.786c-0.336,0 -0.669,-0.02 -0.995,-0.059c0.968,1.049 4.038,1.874 6.394,1.874c7.673,0 11.867,-6.356 11.867,-11.868c0,-0.179 -0.004,-0.359 -0.012,-0.538z"></path></g></g></svg>